<?xml version="1.0" encoding="utf-8"?>
<!-- Generator: Adobe Illustrator 28.2.0, SVG Export Plug-In . SVG Version: 6.00 Build 0)  -->
<svg version="1.1" id="Layer_1" xmlns="http://www.w3.org/2000/svg" xmlns:xlink="http://www.w3.org/1999/xlink" x="0px" y="0px"
	 viewBox="0 0 1920 1080" style="enable-background:new 0 0 1920 1080;" xml:space="preserve">
<style type="text/css">
	.st0{fill:#FFFFFF;}
	.st1{fill:#EC2F2F;}
</style>
<g>
	<g>
		<path class="st0" d="M588.26,581.05c-0.99,0.04-1.98,0.06-2.97,0.06h-0.06v-0.06H588.26z"/>
	</g>
	<path d="M718.61,581.05v24.84h-26.98v26.31h-24.84v-26.31h-81.55V581.1h0.06c0.99,0,1.98-0.02,2.97-0.06
		c43.63-1.56,78.52-37.43,78.52-81.44v-0.8h24.84v82.24H718.61z"/>
	<path class="st1" d="M585.23,558.36c-32.36-0.02-58.7-26.38-58.7-58.76c0-32.4,26.36-58.76,58.76-58.76s58.76,26.36,58.76,58.76
		c0,15.32-5.86,29.82-16.51,40.83c-10.62,10.99-24.86,17.34-40.09,17.88l-0.1,0c-0.64,0.03-1.32,0.04-2.06,0.04H585.23z"/>
	<path d="M754.06,555.84h65.61v9.42h-65.61c-2.97,0-5.44,2.47-5.44,5.44c0,2.98,2.47,5.44,5.44,5.44h52.78
		c8.18,0,14.86,6.69,14.86,14.86c0,8.17-6.69,14.86-14.86,14.86h-65.61v-9.42h65.61c2.98,0,5.44-2.47,5.44-5.44
		c0-2.98-2.46-5.44-5.44-5.44h-52.78c-8.17,0-14.86-6.69-14.86-14.86C739.2,562.53,745.88,555.84,754.06,555.84z"/>
	<path d="M848.22,555.84l26.52,19.2l26.52-19.2h16.07l-37.88,27.42v22.61h-9.42v-22.61l-37.88-27.42H848.22z"/>
	<path d="M942.65,555.84h65.61v9.42h-65.61c-2.98,0-5.44,2.47-5.44,5.44c0,2.98,2.46,5.44,5.44,5.44h52.78
		c8.18,0,14.86,6.69,14.86,14.86c0,8.17-6.69,14.86-14.86,14.86h-65.61v-9.42h65.61c2.98,0,5.44-2.47,5.44-5.44
		c0-2.98-2.47-5.44-5.44-5.44h-52.78c-8.17,0-14.86-6.69-14.86-14.86C927.79,562.53,934.47,555.84,942.65,555.84z"/>
	<path d="M1020.75,555.84h82.51v9.42h-36.54v40.6h-9.42v-40.6h-36.54V555.84z"/>
	<path d="M1120.85,555.84h75.36v9.42h-72.11c-0.54,0-0.97,0.44-0.97,0.97v9.91h73.08v9.42h-73.08v9.91c0,0.54,0.44,0.97,0.97,0.97
		h72.11v9.42h-75.36c-3.94,0-7.15-3.21-7.15-7.15v-35.73C1113.71,559.05,1116.92,555.84,1120.85,555.84z"/>
	<path d="M1220.96,555.84c6.43,0,12.14,3.5,15.06,9.23l15.68,30.84c0.12,0.23,0.3,0.4,0.55,0.48h2.71c0.24-0.08,0.43-0.25,0.55-0.48
		l15.68-30.84c2.92-5.73,8.62-9.23,15.06-9.23h14.29v50.02h-9.42v-40.6h-4.87c-2.89,0-5.35,1.51-6.66,4.08l-16.59,32.61
		c-1.25,2.45-3.62,3.91-6.37,3.91h-6.05c-2.74,0-5.12-1.44-6.36-3.89l-0.91-1.8l-15.68-30.84c-1.31-2.57-3.77-4.08-6.66-4.08h-4.87
		v40.6h-9.42v-50.02H1220.96z"/>
	<path d="M1325.83,555.84h65.61v9.42h-65.61c-2.98,0-5.44,2.47-5.44,5.44c0,2.98,2.46,5.44,5.44,5.44h52.78
		c8.18,0,14.86,6.69,14.86,14.86c0,8.17-6.69,14.86-14.86,14.86H1313v-9.42h65.61c2.98,0,5.44-2.47,5.44-5.44
		c0-2.98-2.47-5.44-5.44-5.44h-52.78c-8.17,0-14.86-6.69-14.86-14.86C1310.97,562.53,1317.66,555.84,1325.83,555.84z"/>
	<g>
		<path class="st1" d="M785.76,625.23h16.84c1.6,0,3.05,0.93,3.73,2.36c0.27,0.55,0.4,1.16,0.4,1.77c0,1.05-0.4,2.06-1.12,2.83
			c0.72,0.77,1.12,1.77,1.12,2.83c0,0.61-0.14,1.22-0.4,1.77c-0.69,1.44-2.14,2.36-3.73,2.36h-16.84c-1.1,0-1.99-0.89-1.99-1.99
			v-9.95C783.77,626.12,784.66,625.23,785.76,625.23z M804.11,629.36c0-0.83-0.69-1.51-1.51-1.51h-15.93
			c-0.15,0-0.27,0.12-0.27,0.27v2.76h16.21C803.42,630.88,804.11,630.19,804.11,629.36z M786.66,636.53h15.93
			c0.83,0,1.51-0.69,1.51-1.51c0-0.83-0.69-1.51-1.51-1.51h-16.21v2.76C786.39,636.41,786.51,636.53,786.66,636.53z"/>
		<path class="st1" d="M812.27,625.23v9.22c0,1.14,0.94,2.08,2.08,2.08h13.56c1.14,0,2.08-0.94,2.08-2.08v-9.22h2.62v9.22
			c0,2.59-2.11,4.7-4.7,4.7h-13.56c-2.59,0-4.7-2.12-4.7-4.7v-9.22H812.27z"/>
		<path class="st1" d="M838.15,625.23v13.92h-2.62v-13.92H838.15z"/>
		<path class="st1" d="M844.85,639.15c-2.09,0-3.8-1.7-3.8-3.8v-10.13h2.62v10.13c0,0.65,0.53,1.18,1.18,1.18h16.91v2.62H844.85z"/>
		<path class="st1" d="M866.64,625.23h16.84c2.59,0,4.7,2.12,4.7,4.7v4.52c0,2.59-2.12,4.7-4.7,4.7h-16.84
			c-1.1,0-1.99-0.89-1.99-1.99v-9.95C864.65,626.12,865.55,625.23,866.64,625.23z M867.55,636.53h15.93c1.14,0,2.08-0.94,2.08-2.08
			v-4.52c0-1.14-0.94-2.08-2.08-2.08h-15.93c-0.15,0-0.27,0.12-0.27,0.27v8.14C867.28,636.41,867.4,636.53,867.55,636.53z"/>
		<path class="st1" d="M909.05,625.23h20.98v2.62h-20.07c-0.15,0-0.27,0.12-0.27,0.27v2.76h20.34v2.62h-20.34v5.65h-2.62v-11.93
			C907.06,626.12,907.95,625.23,909.05,625.23z"/>
		<path class="st1" d="M957.03,639.15l-1.98-2.83h-16.94l-1.98,2.83h-3.2l8.48-12.11c0.81-1.15,2.08-1.81,3.48-1.81h3.37
			c1.4,0,2.67,0.66,3.48,1.81l8.48,12.11H957.03z M948.27,627.85h-3.37c-0.55,0-1.02,0.24-1.33,0.69l-3.61,5.16h13.27l-3.61-5.16
			C949.29,628.09,948.82,627.85,948.27,627.85z"/>
		<path class="st1" d="M967.27,625.23h18.26v2.62h-18.26c-0.83,0-1.51,0.69-1.51,1.51c0,0.83,0.69,1.51,1.51,1.51h14.69
			c2.28,0,4.14,1.86,4.14,4.14c0,2.27-1.86,4.14-4.14,4.14H963.7v-2.62h18.26c0.83,0,1.51-0.69,1.51-1.51
			c0-0.83-0.69-1.51-1.51-1.51h-14.69c-2.28,0-4.14-1.86-4.14-4.14S965,625.23,967.27,625.23z"/>
		<path class="st1" d="M989.01,625.23h22.97v2.62h-10.17v11.3h-2.62v-11.3h-10.17V625.23z"/>
		<path class="st1" d="M1016.36,639.15c-0.81,0-1.47-0.66-1.47-1.47c0-0.81,0.66-1.47,1.47-1.47c0.81,0,1.47,0.66,1.47,1.47
			C1017.84,638.49,1017.18,639.15,1016.36,639.15z"/>
		<path class="st1" d="M1041.41,625.23h15.82c2.59,0,4.7,2.12,4.7,4.7v4.52c0,2.59-2.11,4.7-4.7,4.7h-15.82
			c-2.59,0-4.7-2.12-4.7-4.7v-4.52C1036.71,627.34,1038.82,625.23,1041.41,625.23z M1057.23,636.53c1.14,0,2.08-0.94,2.08-2.08
			v-4.52c0-1.14-0.94-2.08-2.08-2.08h-15.82c-1.14,0-2.08,0.94-2.08,2.08v4.52c0,1.14,0.94,2.08,2.08,2.08H1057.23z"/>
		<path class="st1" d="M1066.83,625.23h16.27c2.59,0,4.7,2.12,4.7,4.7c0,2.2-1.55,4.13-3.71,4.59c-0.33,0.07-0.66,0.11-1,0.11
			h-15.64v4.52h-2.62v-11.93C1064.84,626.12,1065.73,625.23,1066.83,625.23z M1085.18,629.93c0-1.14-0.94-2.08-2.08-2.08h-15.37
			c-0.15,0-0.27,0.12-0.27,0.27v3.89h15.64C1084.24,632.01,1085.18,631.07,1085.18,629.93z"/>
		<path class="st1" d="M1092.71,625.23h20.98v2.62h-20.07c-0.15,0-0.27,0.12-0.27,0.27v2.76h20.34v2.62h-20.34v2.76
			c0,0.15,0.12,0.27,0.27,0.27h20.07v2.62h-20.98c-1.1,0-1.99-0.89-1.99-1.99v-9.95C1090.72,626.12,1091.61,625.23,1092.71,625.23z"
			/>
		<path class="st1" d="M1119.22,639.15h-2.62v-11.93c0-1.1,0.89-1.99,1.99-1.99h16.27c2.59,0,4.7,2.12,4.7,4.7
			c0,2.12-1.44,3.98-3.47,4.54l0.85,1.48c0.22,0.38,0.58,0.59,1.02,0.59h1.6v2.62h-1.86c-1.37,0-2.6-0.71-3.29-1.9l-1.51-2.62
			h-13.68V639.15z M1136.94,629.93c0-1.14-0.94-2.08-2.08-2.08h-15.37c-0.15,0-0.27,0.12-0.27,0.27v3.89h15.64
			C1136,632.01,1136.94,631.07,1136.94,629.93z"/>
		<path class="st1" d="M1166.57,639.15l-1.98-2.83h-16.94l-1.98,2.83h-3.2l8.48-12.11c0.81-1.15,2.08-1.81,3.48-1.81h3.37
			c1.4,0,2.67,0.66,3.48,1.81l8.48,12.11H1166.57z M1157.81,627.85h-3.37c-0.55,0-1.02,0.24-1.33,0.69l-3.61,5.16h13.27l-3.61-5.16
			C1158.83,628.09,1158.36,627.85,1157.81,627.85z"/>
		<path class="st1" d="M1172.67,625.23h22.97v2.62h-10.17v11.3h-2.62v-11.3h-10.17V625.23z"/>
		<path class="st1" d="M1200.54,625.23h20.98v2.62h-20.07c-0.15,0-0.27,0.12-0.27,0.27v2.76h20.34v2.62h-20.34v2.76
			c0,0.15,0.12,0.27,0.27,0.27h20.07v2.62h-20.98c-1.1,0-1.99-0.89-1.99-1.99v-9.95C1198.55,626.12,1199.44,625.23,1200.54,625.23z"
			/>
		<path class="st1" d="M1244.2,639.15c-2.09,0-3.8-1.7-3.8-3.8v-10.13h2.62v10.13c0,0.65,0.53,1.18,1.18,1.18h16.91v2.62H1244.2z"/>
		<path class="st1" d="M1265.99,625.23h20.98v2.62h-20.07c-0.15,0-0.27,0.12-0.27,0.27v2.76h20.34v2.62h-20.34v2.76
			c0,0.15,0.12,0.27,0.27,0.27h20.07v2.62h-20.98c-1.1,0-1.99-0.89-1.99-1.99v-9.95C1264,626.12,1264.9,625.23,1265.99,625.23z"/>
		<path class="st1" d="M1313.98,639.15l-1.98-2.83h-16.94l-1.98,2.83h-3.2l8.48-12.11c0.81-1.15,2.08-1.81,3.48-1.81h3.37
			c1.4,0,2.67,0.66,3.48,1.81l8.48,12.11H1313.98z M1305.22,627.85h-3.37c-0.55,0-1.02,0.24-1.33,0.69l-3.61,5.16h13.27l-3.61-5.16
			C1306.23,628.09,1305.77,627.85,1305.22,627.85z"/>
		<path class="st1" d="M1343.04,625.23v13.92h-4.33c-1.34,0-2.53-0.49-3.48-1.44l-9.18-9.18c-0.46-0.46-0.98-0.68-1.63-0.68h-1.71
			v11.3h-2.62v-13.92h4.33c1.34,0,2.53,0.49,3.48,1.44l9.18,9.18c0.46,0.46,0.98,0.68,1.63,0.68h1.71v-11.3H1343.04z"/>
		<path class="st1" d="M1347.43,639.15c-0.81,0-1.47-0.66-1.47-1.47c0-0.81,0.66-1.47,1.47-1.47c0.81,0,1.47,0.66,1.47,1.47
			C1348.9,638.49,1348.24,639.15,1347.43,639.15z"/>
	</g>
</g>
</svg>
